<svg width="60" height="60" viewBox="0 0 60 60" fill="none" xmlns="http://www.w3.org/2000/svg">
<mask id="mask0_918_826" style="mask-type:alpha" maskUnits="userSpaceOnUse" x="0" y="0" width="60" height="60">
<rect width="60" height="60" fill="#AA5B17"/>
</mask>
<g mask="url(#mask0_918_826)">
<path fill-rule="evenodd" clip-rule="evenodd" d="M19.4631 45.2752C19.5842 46.1408 18.2541 46.3228 18.1329 45.4571C17.8505 43.4426 18.6002 41.8484 20.7759 41.8484H33.8472C33.3579 38.0277 28.4646 37.4152 24.4569 37.4152C20.787 37.4152 20.0995 32.7024 10.872 37.8463V51.7498H24.468C25.9927 51.7498 33.3073 50.4699 36.5962 49.949C37.8278 49.7539 38.8437 49.3249 39.8368 48.5801L53.0201 38.6928C53.8488 37.9741 53.9833 36.8596 52.7222 36.4508C51.9352 36.1958 50.8012 36.301 49.5535 37.0033L40.2318 42.3238C39.9395 42.4012 39.0116 43.1794 37.0119 43.1794L20.4438 43.1991C19.3825 43.3451 19.3301 44.3286 19.4631 45.2752ZM35.2035 41.8484C36.8397 41.8484 38.0974 42.011 39.562 41.1761L48.8486 35.8739C53.4519 33.3442 56.7872 36.8507 53.9556 39.65L40.6465 49.6355C38.7137 51.0849 37.3541 51.166 34.9322 51.5673C31.5947 52.1204 25.799 53.0807 24.468 53.0807H10.872C10.872 53.9104 11.0697 55 10.1988 55H5.67311C5.30138 55 5 54.7021 5 54.3346V34.6294C5 34.2619 5.30138 33.964 5.67311 33.964H10.1988C10.5705 33.964 10.872 34.2619 10.872 34.6294V36.3335C20.0887 31.4375 21.5545 36.0843 24.4569 36.0843C29.2499 36.0843 34.7418 37.0357 35.2035 41.8484ZM9.52565 35.2949H6.34628V53.6691H9.52565V35.2949ZM25.8969 12.2062C29.2718 12.2062 29.2718 17.2681 25.8969 17.2681C22.5219 17.2681 22.5218 12.2062 25.8969 12.2062ZM26.9909 14.221C26.4425 12.8653 24.1532 13.6474 24.8028 15.2532C25.3513 16.6089 27.6402 15.8275 26.9909 14.221ZM26.9561 23.9541L33.1847 13.2889C33.6276 12.5318 32.4647 11.8678 32.0227 12.6235L25.7941 23.2887C25.3514 24.0458 26.5133 24.71 26.9561 23.9541ZM33.0819 19.2807C36.4958 19.2807 36.4958 24.4008 33.0819 24.4008C29.668 24.4008 29.6682 19.2807 33.0819 19.2807ZM34.2027 21.3125C34.8676 22.9565 32.5232 23.7584 31.9611 22.3687C31.2962 20.7244 33.6409 19.9231 34.2027 21.3125ZM30.7211 6.25076C30.3188 6.5582 29.8465 6.70959 29.3774 6.7052C28.5457 6.69759 28.1239 6.28754 27.5276 5.81348C25.9924 4.59287 23.7934 4.86814 22.5984 6.33737C21.3611 7.85826 22.2387 9.0951 21.1247 10.1755C20.5299 10.7524 19.9412 10.7569 19.1807 10.8382C17.2193 11.0482 15.8625 12.7816 16.0679 14.6536C16.2809 16.5963 17.787 16.8592 17.7722 18.3995C17.7644 19.222 17.3496 19.6388 16.8702 20.2283C15.6354 21.7459 15.914 23.9198 17.4002 25.1014C18.939 26.3248 20.1895 25.4569 21.2826 26.5582C21.8657 27.146 21.8705 27.7283 21.9528 28.4802C22.1655 30.4194 23.9188 31.7604 25.8121 31.5574C27.7773 31.3468 28.0431 29.858 29.6012 29.8725C30.4331 29.8803 30.8548 30.2902 31.4511 30.7644C32.986 31.9849 35.1851 31.7096 36.3804 30.2405C37.6176 28.7198 36.74 27.4824 37.8539 26.4023C38.4488 25.8254 39.037 25.8209 39.7979 25.7394C41.7595 25.5293 43.1157 23.796 42.9107 21.924C42.6979 19.9814 41.1917 19.7187 41.2063 18.1781C41.2142 17.3559 41.6289 16.939 42.1084 16.3494C43.343 14.8319 43.0646 12.6583 41.5785 11.4763C40.0409 10.2534 38.7886 11.1204 37.696 10.0194C37.1126 9.43166 37.108 8.84938 37.0255 8.09749C36.813 6.15826 35.0598 4.81748 33.1663 5.02026C32.0765 5.13703 31.5403 5.62437 30.7211 6.25076ZM32.2218 6.78043C31.3058 7.48071 30.6589 8.04276 29.3669 8.03082C26.9616 8.00832 26.595 5.70242 24.5227 6.52798C22.4072 7.3706 23.821 9.41955 22.0659 11.1216C20.3486 12.7871 18.4397 11.4127 17.566 13.4436C16.6724 15.5203 19.1364 15.9754 19.1131 18.4098C19.0901 20.7886 16.7577 21.15 17.593 23.199C18.4455 25.2903 20.5181 23.8927 22.2395 25.6278C23.9241 27.3255 22.5341 29.2127 24.5883 30.0764C26.6889 30.9599 27.1493 28.524 29.6118 28.547C32.0176 28.5697 32.3839 30.8754 34.4562 30.0497C36.5716 29.2069 35.1574 27.1584 36.9128 25.4561C38.6305 23.7904 40.5387 25.1652 41.4127 23.134C42.3064 21.0571 39.8423 20.6023 39.8657 18.1677C39.8886 15.7895 42.2209 15.4274 41.3857 13.3786C40.5333 11.2874 38.4608 12.685 36.7392 10.9499C35.0547 9.25216 36.445 7.36521 34.3905 6.50126C33.6735 6.19987 32.8618 6.29115 32.2218 6.78043Z" fill="#AA5B17"/>
</g>
</svg>
