<svg width="60" height="60" viewBox="0 0 60 60" fill="none" xmlns="http://www.w3.org/2000/svg">
<mask id="mask0_918_803" style="mask-type:alpha" maskUnits="userSpaceOnUse" x="0" y="0" width="60" height="60">
<rect width="60" height="60" fill="#AA5B17"/>
</mask>
<g mask="url(#mask0_918_803)">
<path d="M40.0455 39.6137C40.9227 39.6137 41.6337 38.9188 41.6337 38.0616C41.6337 37.2044 40.9227 36.5095 40.0455 36.5095C39.1684 36.5095 38.4574 37.2044 38.4574 38.0616C38.4574 38.9188 39.1684 39.6137 40.0455 39.6137Z" fill="#AA5B17"/>
<path d="M49.0522 8.79567L46.8725 10.9259C46.7487 11.0469 46.6504 11.1907 46.5834 11.3488C46.5163 11.507 46.4818 11.6765 46.4818 11.8477C46.4818 12.019 46.5163 12.1885 46.5834 12.3467C46.6504 12.5048 46.7487 12.6486 46.8725 12.7696C46.9964 12.8907 47.1435 12.9867 47.3053 13.0522C47.4672 13.1178 47.6406 13.1515 47.8158 13.1515C47.991 13.1515 48.1645 13.1178 48.3263 13.0522C48.4882 12.9867 48.6353 12.8907 48.7591 12.7696L50.9388 10.6394C51.189 10.3949 51.3296 10.0633 51.3296 9.71754C51.3296 9.37177 51.189 9.04017 50.9388 8.79567C50.6887 8.55117 50.3493 8.41382 49.9955 8.41382C49.6417 8.41382 49.3024 8.55117 49.0522 8.79567Z" fill="#AA5B17"/>
<path d="M49.2919 18.1868C49.2919 18.5322 49.4322 18.8634 49.6821 19.1076C49.932 19.3517 50.2709 19.4889 50.6242 19.4889H53.6673C54.0206 19.4889 54.3595 19.3517 54.6094 19.1076C54.8592 18.8634 54.9996 18.5322 54.9996 18.1868C54.9996 17.8415 54.8592 17.5103 54.6094 17.2661C54.3595 17.0219 54.0206 16.8848 53.6673 16.8848H50.6242C50.2709 16.8848 49.932 17.0219 49.6821 17.2661C49.4322 17.5103 49.2919 17.8415 49.2919 18.1868Z" fill="#AA5B17"/>
<path d="M42.833 9.27554V6.30159C42.833 5.95626 42.6926 5.62507 42.4428 5.38088C42.1929 5.13669 41.854 4.99951 41.5007 4.99951C41.1473 4.99951 40.8084 5.13669 40.5586 5.38088C40.3087 5.62507 40.1683 5.95626 40.1683 6.30159V9.27554C40.1683 9.62088 40.3087 9.95207 40.5586 10.1963C40.8084 10.4404 41.1473 10.5776 41.5007 10.5776C41.854 10.5776 42.1929 10.4404 42.4428 10.1963C42.6926 9.95207 42.833 9.62088 42.833 9.27554Z" fill="#AA5B17"/>
<path d="M26.4718 9.85878C26.2172 9.62248 25.8795 9.49072 25.5285 9.49072C25.1774 9.49072 24.8397 9.62248 24.5852 9.85878L19.3411 14.989H9.47109C8.28565 14.9904 7.14917 15.4512 6.31094 16.2704C5.4727 17.0896 5.00117 18.2002 4.99976 19.3588V28.9942C4.99976 29.3395 5.14013 29.6707 5.38999 29.9149C5.63985 30.1591 5.97874 30.2962 6.3321 30.2962C6.68545 30.2962 7.02434 30.1591 7.2742 29.9149C7.52407 29.6707 7.66444 29.3395 7.66444 28.9942V23.3535C8.23309 23.6009 8.84863 23.7287 9.47109 23.7285H44.874C45.3673 23.7285 45.8404 23.92 46.1892 24.2609C46.538 24.6018 46.734 25.0642 46.734 25.5462V31.6139H39.8058C38.9068 31.6175 38.0179 31.7999 37.1933 32.15C36.3687 32.5001 35.6256 33.0106 35.0094 33.6504C34.3806 34.29 33.8947 35.0505 33.5828 35.8835C33.2709 36.7164 33.1396 37.6037 33.1974 38.4889C33.335 40.1438 34.1104 41.6859 35.3668 42.8036C36.6232 43.9212 38.2669 44.531 39.9657 44.5097H46.734V50.5358C46.734 51.0289 46.5335 51.5018 46.1767 51.8505C45.8199 52.1992 45.336 52.3951 44.8314 52.3951H31.5986C31.2452 52.3951 30.9064 52.5323 30.6565 52.7765C30.4066 53.0207 30.2663 53.3519 30.2663 53.6972C30.2663 54.0426 30.4066 54.3737 30.6565 54.6179C30.9064 54.8621 31.2452 54.9993 31.5986 54.9993H44.8154C46.0263 54.9979 47.1872 54.5272 48.0434 53.6904C48.8996 52.8537 49.3813 51.7192 49.3827 50.5358V44.5097H51.248C52.0504 44.5084 52.8195 44.1962 53.3869 43.6417C53.9543 43.0873 54.2736 42.3356 54.275 41.5514V34.5723C54.2737 33.7908 53.9565 33.0415 53.3925 32.4874C52.8286 31.9334 52.0636 31.6194 51.2639 31.6139H49.3987V25.5462C49.3916 24.3775 48.912 23.259 48.0644 22.4345C47.2168 21.61 46.0699 21.1466 44.874 21.1452H44.7408V18.9733C44.7394 17.9161 44.3087 16.9027 43.5432 16.1557C42.7778 15.4086 41.7403 14.989 40.6585 14.989H31.7212L26.4718 9.85878ZM51.2639 34.2181C51.3601 34.2181 51.4522 34.2554 51.5202 34.3218C51.5882 34.3883 51.6263 34.4783 51.6263 34.5723V41.5514C51.6263 41.6453 51.5882 41.7354 51.5202 41.8019C51.4522 41.8683 51.3601 41.9056 51.2639 41.9056H39.9657C38.9463 41.9271 37.9564 41.5705 37.1951 40.9077C36.4337 40.2448 35.9575 39.3248 35.8621 38.3327C35.8263 37.8077 35.9013 37.2812 36.0822 36.7857C36.2631 36.2902 36.5462 35.8363 36.9139 35.452C37.2816 35.0678 37.7261 34.7614 38.2198 34.5518C38.7136 34.3423 39.2462 34.234 39.7845 34.2337L51.2639 34.2181ZM13.0631 21.1452H9.47109C8.99194 21.1452 8.53241 20.9592 8.19359 20.6281C7.85478 20.297 7.66444 19.8479 7.66444 19.3796C7.66444 18.9113 7.85478 18.4622 8.19359 18.1311C8.53241 17.8 8.99194 17.614 9.47109 17.614H16.6764L13.0631 21.1452ZM40.6585 17.5931C41.0331 17.5931 41.3923 17.7386 41.6572 17.9974C41.922 18.2562 42.0708 18.6073 42.0708 18.9733V21.1452H37.9938L34.3805 17.614L40.6585 17.5931ZM16.8309 21.1452L25.5285 12.6244L34.2313 21.1452H16.8309Z" fill="#AA5B17"/>
<path d="M6.3321 48.0614C7.861 48.0628 9.32688 48.657 10.408 49.7135C11.4891 50.7701 12.0971 52.2027 12.0985 53.6968C12.0985 54.0422 12.2388 54.3734 12.4887 54.6176C12.7386 54.8617 13.0774 54.9989 13.4308 54.9989C13.7842 54.9989 14.123 54.8617 14.3729 54.6176C14.6228 54.3734 14.7631 54.0422 14.7631 53.6968C14.7603 51.5124 13.8712 49.4183 12.2906 47.8736C10.7101 46.329 8.56728 45.46 6.3321 45.4573C5.97874 45.4573 5.63985 45.5945 5.38999 45.8386C5.14013 46.0828 4.99976 46.414 4.99976 46.7594C4.99976 47.1047 5.14013 47.4359 5.38999 47.6801C5.63985 47.9243 5.97874 48.0614 6.3321 48.0614Z" fill="#AA5B17"/>
<path d="M6.3321 42.1142C9.47471 42.1169 12.4878 43.3382 14.71 45.5099C16.9321 47.6816 18.1818 50.6262 18.1846 53.6975C18.1846 54.0428 18.325 54.374 18.5748 54.6182C18.8247 54.8624 19.1636 54.9996 19.5169 54.9996C19.8703 54.9996 20.2092 54.8624 20.459 54.6182C20.7089 54.374 20.8493 54.0428 20.8493 53.6975C20.845 49.936 19.3142 46.3298 16.5926 43.67C13.871 41.0102 10.181 39.5141 6.3321 39.51C5.97874 39.51 5.63985 39.6472 5.38999 39.8914C5.14013 40.1356 4.99976 40.4668 4.99976 40.8121C4.99976 41.1574 5.14013 41.4886 5.38999 41.7328C5.63985 41.977 5.97874 42.1142 6.3321 42.1142Z" fill="#AA5B17"/>
<path d="M6.3321 36.1723C11.0875 36.1764 15.647 38.0241 19.0101 41.3098C22.3731 44.5955 24.2651 49.0509 24.2707 53.6983C24.2707 54.0436 24.4111 54.3748 24.661 54.619C24.9108 54.8632 25.2497 55.0004 25.6031 55.0004C25.9564 55.0004 26.2953 54.8632 26.5452 54.619C26.795 54.3748 26.9354 54.0436 26.9354 53.6983C26.9284 48.3606 24.7552 43.2437 20.8927 39.4699C17.0302 35.6961 11.7938 33.5736 6.3321 33.5681C5.97874 33.5681 5.63985 33.7053 5.38999 33.9495C5.14013 34.1937 4.99976 34.5249 4.99976 34.8702C4.99976 35.2155 5.14013 35.5467 5.38999 35.7909C5.63985 36.0351 5.97874 36.1723 6.3321 36.1723Z" fill="#AA5B17"/>
</g>
</svg>
