<svg width="24" height="24" viewBox="0 0 24 24" fill="none" xmlns="http://www.w3.org/2000/svg">
<mask id="mask0_812_1163" style="mask-type:alpha" maskUnits="userSpaceOnUse" x="0" y="0" width="24" height="24">
<rect width="24" height="24" fill="#AA5B17"/>
</mask>
<g mask="url(#mask0_812_1163)">
<path d="M9.19689 9.67815H14.8031C14.8345 9.67815 14.8656 9.67204 14.8946 9.66017C14.9236 9.6483 14.9499 9.6309 14.9721 9.60897C14.9943 9.58703 15.0119 9.561 15.0239 9.53235C15.0359 9.50369 15.042 9.47299 15.042 9.44198C15.0412 8.82051 14.8457 8.21452 14.4822 7.70724C14.1187 7.19995 13.6051 6.81625 13.012 6.60884C13.2531 6.42571 13.431 6.17336 13.5211 5.88642C13.6113 5.59948 13.6093 5.29202 13.5154 5.00624C13.4216 4.72046 13.2405 4.47038 12.997 4.29031C12.7535 4.11025 12.4595 4.00904 12.1555 4.00058C11.8514 3.99211 11.5522 4.07681 11.2988 4.24303C11.0454 4.40926 10.8503 4.64887 10.7403 4.92897C10.6303 5.20908 10.6108 5.51594 10.6844 5.80744C10.7581 6.09894 10.9212 6.36079 11.1516 6.55704C10.5194 6.73917 9.96394 7.11871 9.56849 7.63881C9.17304 8.1589 8.95884 8.79155 8.958 9.44198C8.95797 9.47299 8.96413 9.50369 8.97612 9.53235C8.98811 9.561 9.0057 9.58703 9.02789 9.60897C9.05008 9.6309 9.07642 9.6483 9.10542 9.66017C9.13442 9.67204 9.1655 9.67815 9.19689 9.67815ZM12.1138 4.47366C12.3106 4.47362 12.5031 4.53124 12.6668 4.63924C12.8305 4.74723 12.9581 4.90075 13.0335 5.08038C13.1089 5.26002 13.1286 5.45769 13.0902 5.6484C13.0519 5.83912 12.9571 6.01431 12.8179 6.15182C12.6787 6.28932 12.5013 6.38298 12.3083 6.42093C12.1152 6.45888 11.915 6.43942 11.7332 6.36502C11.5513 6.29062 11.3958 6.16462 11.2864 6.00294C11.177 5.84127 11.1187 5.65119 11.1187 5.45675C11.119 5.19614 11.2239 4.94629 11.4104 4.762C11.597 4.5777 11.8499 4.47401 12.1138 4.47366ZM12 6.90866C12.6385 6.90946 13.2539 7.14524 13.7259 7.56998C14.1979 7.99471 14.4928 8.57794 14.5529 9.20582H9.44711C9.50724 8.57794 9.80209 7.99471 10.2741 7.56998C10.7461 7.14524 11.3615 6.90946 12 6.90866ZM13.012 16.93C13.2531 16.7469 13.431 16.4945 13.5211 16.2076C13.6113 15.9207 13.6093 15.6132 13.5154 15.3274C13.4216 15.0416 13.2405 14.7916 12.997 14.6115C12.7535 14.4314 12.4595 14.3302 12.1555 14.3218C11.8514 14.3133 11.5522 14.398 11.2988 14.5642C11.0454 14.7304 10.8503 14.9701 10.7403 15.2502C10.6303 15.5303 10.6108 15.8371 10.6844 16.1286C10.7581 16.4201 10.9212 16.682 11.1516 16.8782C10.5194 17.0603 9.964 17.4399 9.56855 17.9599C9.1731 18.48 8.95889 19.1126 8.958 19.763C8.95797 19.794 8.96413 19.8247 8.97612 19.8533C8.98811 19.882 9.0057 19.908 9.02789 19.9299C9.05008 19.9519 9.07642 19.9693 9.10542 19.9811C9.13442 19.993 9.1655 19.9991 9.19689 19.9991H14.8031C14.8345 19.9991 14.8656 19.993 14.8946 19.9811C14.9236 19.9693 14.9499 19.9519 14.9721 19.9299C14.9943 19.908 15.0119 19.882 15.0239 19.8533C15.0359 19.8247 15.042 19.794 15.042 19.763C15.041 19.1417 14.8454 18.5359 14.4819 18.0288C14.1184 17.5218 13.605 17.1382 13.012 16.9309V16.93ZM12.1138 14.7948C12.3106 14.7948 12.503 14.8525 12.6666 14.9605C12.8303 15.0685 12.9578 15.222 13.0331 15.4016C13.1085 15.5812 13.1282 15.7788 13.0898 15.9695C13.0514 16.1601 12.9566 16.3353 12.8174 16.4727C12.6783 16.6102 12.5009 16.7038 12.3079 16.7417C12.1149 16.7796 11.9148 16.7602 11.733 16.6858C11.5511 16.6114 11.3957 16.4854 11.2864 16.3238C11.177 16.1621 11.1187 15.9721 11.1187 15.7777C11.1192 15.5173 11.2242 15.2677 11.4108 15.0836C11.5973 14.8995 11.8501 14.796 12.1138 14.7957V14.7948ZM9.44711 19.527C9.50651 18.8989 9.80115 18.3152 10.2733 17.8904C10.7455 17.4655 11.3613 17.2301 12 17.2301C12.6387 17.2301 13.2545 17.4655 13.7267 17.8904C14.1989 18.3152 14.4935 18.8989 14.5529 19.527H9.44711ZM19.9698 16.9309C20.2109 16.7478 20.3888 16.4954 20.479 16.2085C20.5691 15.9216 20.5672 15.6141 20.4733 15.3283C20.3795 15.0425 20.1984 14.7924 19.9549 14.6123C19.7114 14.4322 19.4174 14.331 19.1134 14.3226C18.8093 14.3141 18.51 14.3988 18.2567 14.565C18.0033 14.7313 17.8082 14.9709 17.6982 15.251C17.5882 15.5311 17.5687 15.838 17.6424 16.1295C17.716 16.421 17.8792 16.6829 18.1096 16.8791C17.4774 17.0612 16.9219 17.4407 16.5264 17.9607C16.1309 18.4808 15.9167 19.1134 15.9158 19.7638C15.9158 19.7949 15.922 19.8257 15.934 19.8544C15.9461 19.8831 15.9638 19.9091 15.986 19.9311C16.0083 19.953 16.0348 19.9704 16.0638 19.9822C16.0929 19.994 16.1241 20.0001 16.1556 20H21.7609C21.8243 20 21.8851 19.9751 21.93 19.9308C21.9748 19.8865 22 19.8265 22 19.7638C21.9992 19.1424 21.8036 18.5364 21.4401 18.0291C21.0766 17.5219 20.5629 17.1382 19.9698 16.9309ZM19.0718 14.7957C19.2686 14.7957 19.461 14.8534 19.6246 14.9614C19.7883 15.0694 19.9158 15.2229 19.9911 15.4025C20.0665 15.5821 20.0862 15.7797 20.0478 15.9703C20.0094 16.161 19.9146 16.3361 19.7754 16.4736C19.6363 16.611 19.4589 16.7046 19.2659 16.7426C19.0729 16.7805 18.8728 16.761 18.691 16.6866C18.5091 16.6123 18.3537 16.4863 18.2444 16.3246C18.135 16.163 18.0767 15.973 18.0767 15.7786C18.077 15.518 18.1819 15.2682 18.3685 15.0839C18.555 14.8997 18.8079 14.796 19.0718 14.7957ZM16.4051 19.5279C16.4648 18.8999 16.7596 18.3165 17.2317 17.8919C17.7039 17.4672 18.3195 17.2319 18.9581 17.2319C19.5967 17.2319 20.2123 17.4672 20.6845 17.8919C21.1567 18.3165 21.4514 18.8999 21.5111 19.5279H16.4051ZM6.054 16.9309C6.29517 16.7478 6.47305 16.4954 6.56321 16.2085C6.65337 15.9216 6.6514 15.6141 6.55756 15.3283C6.46373 15.0425 6.28263 14.7924 6.03913 14.6123C5.79563 14.4322 5.50167 14.331 5.1976 14.3226C4.89353 14.3141 4.59426 14.3988 4.34088 14.565C4.0875 14.7313 3.89242 14.9709 3.78243 15.251C3.67244 15.5311 3.65293 15.838 3.72659 16.1295C3.80024 16.421 3.96344 16.6829 4.19378 16.8791C3.56158 17.0612 3.00614 17.4407 2.61064 17.9607C2.21515 18.4808 2.0009 19.1134 2 19.7638C2 19.8265 2.02519 19.8865 2.07003 19.9308C2.11488 19.9751 2.17569 20 2.23911 20H7.84444C7.90786 20 7.96868 19.9751 8.01352 19.9308C8.05836 19.8865 8.08356 19.8265 8.08356 19.7638C8.0828 19.1424 7.8873 18.5365 7.52391 18.0293C7.16051 17.522 6.64704 17.1383 6.054 16.9309ZM5.15556 14.7957C5.35236 14.7958 5.54473 14.8535 5.70835 14.9615C5.87196 15.0695 5.99948 15.223 6.07476 15.4026C6.15004 15.5822 6.16972 15.7798 6.1313 15.9705C6.09287 16.1611 5.99808 16.3362 5.8589 16.4737C5.71973 16.6111 5.54241 16.7047 5.34939 16.7426C5.15636 16.7805 4.95629 16.761 4.77447 16.6866C4.59265 16.6122 4.43725 16.4862 4.32791 16.3246C4.21858 16.163 4.16022 15.973 4.16022 15.7786C4.16052 15.518 4.26548 15.2681 4.45209 15.0838C4.63869 14.8996 4.89169 14.796 5.15556 14.7957ZM2.48889 19.5279C2.54857 18.8999 2.84333 18.3165 3.31551 17.8919C3.78769 17.4672 4.4033 17.2319 5.04189 17.2319C5.68048 17.2319 6.29609 17.4672 6.76827 17.8919C7.24044 18.3165 7.53521 18.8999 7.59489 19.5279H2.48889ZM4.91689 13.3723V12.0008C4.91689 11.9382 4.94202 11.8782 4.98677 11.8339C5.03151 11.7897 5.09222 11.7647 5.15556 11.7646H11.8747V10.6292C11.8747 10.5666 11.8999 10.5065 11.9447 10.4622C11.9895 10.4179 12.0504 10.393 12.1138 10.393C12.1772 10.393 12.238 10.4179 12.2829 10.4622C12.3277 10.5065 12.3529 10.5666 12.3529 10.6292V11.7646H19.0718C19.1032 11.7645 19.1343 11.7706 19.1634 11.7825C19.1924 11.7943 19.2188 11.8117 19.2411 11.8336C19.2633 11.8556 19.2809 11.8816 19.2929 11.9103C19.305 11.939 19.3111 11.9697 19.3111 12.0008V13.3723C19.3121 13.404 19.3066 13.4354 19.2951 13.4649C19.2835 13.4944 19.266 13.5213 19.2437 13.544C19.2215 13.5667 19.1948 13.5847 19.1653 13.597C19.1358 13.6094 19.1041 13.6157 19.0721 13.6157C19.0401 13.6157 19.0084 13.6094 18.9789 13.597C18.9494 13.5847 18.9228 13.5667 18.9005 13.544C18.8782 13.5213 18.8607 13.4944 18.8492 13.4649C18.8376 13.4354 18.8321 13.404 18.8331 13.3723V12.2369H12.3529V13.3723C12.3529 13.435 12.3277 13.4951 12.2829 13.5393C12.238 13.5836 12.1772 13.6085 12.1138 13.6085C12.0504 13.6085 11.9895 13.5836 11.9447 13.5393C11.8999 13.4951 11.8747 13.435 11.8747 13.3723V12.2369H5.39489V13.3723C5.39586 13.404 5.3904 13.4354 5.37883 13.4649C5.36726 13.4944 5.34981 13.5213 5.32752 13.544C5.30523 13.5667 5.27856 13.5847 5.24907 13.597C5.21959 13.6094 5.1879 13.6157 5.15589 13.6157C5.12387 13.6157 5.09219 13.6094 5.0627 13.597C5.03322 13.5847 5.00654 13.5667 4.98425 13.544C4.96196 13.5213 4.94452 13.4944 4.93294 13.4649C4.92137 13.4354 4.91591 13.404 4.91689 13.3723Z" fill="#AA5B17"/>
</g>
</svg>
