<svg width="40" height="40" viewBox="0 0 40 40" fill="none" xmlns="http://www.w3.org/2000/svg">
<mask id="mask0_816_3727" style="mask-type:alpha" maskUnits="userSpaceOnUse" x="0" y="0" width="40" height="40">
<rect width="40" height="40" fill="#AA5B17"/>
</mask>
<g mask="url(#mask0_816_3727)">
<path d="M25.4556 3.33325H12.8835C11.2687 3.33325 10 4.60199 10 6.21676V8.46589V9.6193V28.3621V29.5155V33.7831C10 35.3978 11.2687 36.6666 12.8835 36.6666H25.4556C27.0704 36.6666 28.3391 35.3978 28.3391 33.7831V29.5155V28.3621V9.6193V8.46589V6.21676C28.3391 4.60199 27.0127 3.33325 25.4556 3.33325ZM27.1857 33.7831C27.1857 34.7635 26.436 35.5132 25.4556 35.5132H12.8835C11.9031 35.5132 11.1534 34.7635 11.1534 33.7831V29.5155H27.1857V33.7831ZM27.1857 28.3621H11.1534V9.6193H27.1857V28.3621ZM11.1534 8.46589V6.21676C11.1534 5.23637 11.9031 4.48665 12.8835 4.48665H25.4556C26.436 4.48665 27.1857 5.23637 27.1857 6.21676V8.46589H11.1534Z" fill="#AA5B17"/>
<path d="M19.1696 34.5328C20.2653 34.5328 21.188 33.61 21.188 32.5143C21.188 31.4186 20.2653 30.4958 19.1696 30.4958C18.0738 30.4958 17.1511 31.4186 17.1511 32.5143C17.1511 33.61 18.0738 34.5328 19.1696 34.5328ZM19.1696 31.5916C19.6309 31.5916 20.0346 31.9953 20.0346 32.4566C20.0346 32.918 19.6309 33.3217 19.1696 33.3217C18.7082 33.3217 18.3045 32.918 18.3045 32.4566C18.3045 31.9953 18.7082 31.5916 19.1696 31.5916Z" fill="#AA5B17"/>
</g>
</svg>
