<svg width="60" height="60" viewBox="0 0 60 60" fill="none" xmlns="http://www.w3.org/2000/svg">
<mask id="mask0_918_820" style="mask-type:alpha" maskUnits="userSpaceOnUse" x="0" y="0" width="60" height="60">
<rect width="60" height="60" fill="#AA5B17"/>
</mask>
<g mask="url(#mask0_918_820)">
<path d="M22.1245 48.9482L16.5758 48.9019L13.8046 48.8858H12.4179C12.3159 48.8797 12.1576 48.8858 12.0972 48.8757C12.0285 48.8757 11.964 48.8757 11.8994 48.8555C11.7662 48.8394 11.6433 48.7931 11.5205 48.7528C11.0354 48.5473 10.6627 48.0919 10.594 47.5861C10.5669 47.4632 10.5731 47.3544 10.5731 47.0905V46.4195V45.0775V43.7355C10.5731 43.256 10.5794 42.9356 10.6314 42.5386C10.7272 41.781 10.9729 41.0436 11.3289 40.3625C11.6871 39.6814 12.1701 39.0628 12.7469 38.5369C13.3965 37.9485 14.0732 37.3763 14.7727 36.8302C16.1636 35.7421 17.646 34.7569 19.1909 33.8904C19.9634 33.4633 20.7587 33.0643 21.5624 32.6996C21.9684 32.5303 22.3723 32.3429 22.7888 32.1898L23.4717 31.9218C23.8235 31.7667 24.1546 31.545 24.4211 31.2508C24.6876 30.9566 24.8958 30.596 24.9957 30.2031C25.0498 30.0076 25.0748 29.8061 25.0748 29.6046V29.4233C25.0748 29.383 25.0748 29.2419 25.0644 29.1593C25.0269 28.7664 24.9041 28.3856 24.6855 28.039C24.573 27.8637 24.4398 27.7045 24.2795 27.5534C24.2003 27.4808 24.115 27.4083 24.0192 27.3479L23.8547 27.235C23.1614 26.7816 22.5222 26.2558 21.958 25.6573C19.676 23.2837 18.6683 19.8439 19.3408 16.6829C19.9654 13.5255 22.2182 10.7107 25.2146 9.3948C26.697 8.72381 28.3335 8.38935 29.9575 8.43567C30.7737 8.46589 31.5628 8.6009 32.3352 8.79232C33.0973 9.03008 33.8552 9.29807 34.5422 9.69502C35.9393 10.4486 37.1386 11.5266 38.013 12.8C38.8979 14.0594 39.4726 15.4981 39.6329 16.9629C39.6537 17.1322 39.6745 17.3095 39.6974 17.4848C39.6974 17.6661 39.7037 17.8455 39.7079 18.0308C39.7287 18.3976 39.7141 18.7784 39.6912 19.1552C39.6496 19.9128 39.5413 20.6503 39.4726 21.3273C39.3393 22.6693 39.281 23.854 40.4532 24.4888C41.3964 24.9985 42.5749 24.1019 43.3098 22.4154C43.6721 21.5792 43.9178 20.5798 43.997 19.5622C44.0886 18.5507 44.0074 17.5191 43.8699 16.6164C43.5493 14.5631 42.7456 12.5825 41.5255 10.9021C40.3054 9.21556 38.7064 7.79703 36.8679 6.75934C35.0128 5.74785 32.912 5.13531 30.7756 5.01641C28.6539 4.91767 26.5115 5.26425 24.5543 6.06416C20.6587 7.67411 17.5771 11.027 16.5175 14.9926C15.9845 16.9632 15.8721 19.0366 16.2677 21.0335C16.6612 23.0303 17.5252 24.9384 18.7724 26.5626C19.4283 27.4129 20.184 28.1928 21.0211 28.8678C21.2334 29.033 21.4416 29.2023 21.6665 29.3574L21.7414 29.4098L21.3521 29.5589C20.4256 29.9357 19.5136 30.3528 18.6287 30.8082C16.859 31.7209 15.1808 32.7728 13.6026 33.9434C12.8134 34.5257 12.0452 35.1403 11.306 35.7791L10.7522 36.2647C10.571 36.4339 10.3358 36.6455 10.1505 36.847C9.75695 37.26 9.39257 37.7094 9.0782 38.1829C8.44941 39.138 7.9851 40.1938 7.73528 41.304C7.60827 41.8561 7.53331 42.4244 7.51041 42.9905L7.5 43.4076V43.7542V44.4393V47.1836V47.3589L7.51041 47.6471C7.51666 47.8385 7.5583 48.0339 7.58537 48.2254C7.67074 48.6022 7.78733 48.9789 7.97472 49.3235C8.32034 50.0247 8.87002 50.6191 9.52589 51.0624C10.1859 51.4956 10.9708 51.7697 11.7704 51.8301C12.2388 51.8563 12.3721 51.8402 12.6344 51.8462H13.3423H16.1781H21.8499C24.3401 51.8362 28.0339 52.346 28.1917 50.4479C28.3624 48.3946 24.498 48.9729 22.1308 48.9467L22.1245 48.9482ZM22.2202 29.2281H22.2036V29.2342C22.2098 29.2342 22.2202 29.2281 22.2202 29.2281Z" fill="#AA5B17"/>
<path d="M47.251 46.9994L48.0193 46.943C48.3545 46.9128 48.6918 46.8604 49.0166 46.7677C49.6725 46.5864 50.2804 46.268 50.7968 45.8388C51.8315 44.9925 52.4645 43.7231 52.4978 42.4134C52.5082 42.089 52.477 41.7626 52.4187 41.4442L52.3063 40.9747L52.2001 40.6181L51.7628 39.1935L50.8988 36.3504L50.0451 33.5033C49.6828 32.2702 48.7542 31.1922 47.5549 30.6401C46.3723 30.0678 44.9211 30.0114 43.6802 30.495L43.2263 30.6965L42.8848 30.8657L42.2082 31.2063L40.8486 31.8873C39.0309 32.79 37.2091 33.6827 35.3788 34.5551L34.0046 35.2059L33.3175 35.5304L32.9552 35.7056C32.8012 35.7883 32.6409 35.8648 32.4909 35.9696C31.2854 36.7273 30.4276 38.0027 30.2048 39.4152C30.0924 40.0539 30.1361 40.874 30.3485 41.5087C30.4984 41.9943 30.6837 42.4679 30.9086 42.8708C31.3666 43.6708 32.0017 44.1704 32.9552 43.8763C33.7381 43.6345 33.9088 42.9171 33.8338 42.0548C33.7964 41.6216 33.6943 41.1581 33.5777 40.6927L33.5361 40.5275L33.5194 40.4287C33.4986 40.3663 33.5028 40.3058 33.4882 40.2433C33.4715 40.1204 33.4778 39.9955 33.4882 39.8827C33.5465 39.3668 33.8234 38.8812 34.2336 38.5729C34.3502 38.4903 34.421 38.444 34.5917 38.3553L35.2517 38.0148L36.5739 37.3337L41.8498 34.5894L44.4837 33.2111C44.6169 33.1386 44.644 33.1346 44.7127 33.1023C44.771 33.0721 44.8293 33.0499 44.8938 33.0358C45.0167 32.9895 45.1395 32.9693 45.2665 32.9532C45.5164 32.923 45.7787 32.9431 46.0286 33.0157C46.5303 33.1648 46.9509 33.5154 47.1633 33.9647C47.1945 34.0211 47.2216 34.0735 47.2382 34.14C47.2591 34.2125 47.2757 34.2226 47.3132 34.3677L47.5152 35.0649L47.9087 36.4632L48.729 39.389L49.1392 40.8538L49.3474 41.5873L49.4015 41.7686L49.4182 41.8673C49.4286 41.9298 49.4494 41.9903 49.4453 42.0487C49.4994 42.5282 49.3183 43.0239 48.9706 43.3685C48.7998 43.5438 48.5916 43.6788 48.3688 43.7614C48.2564 43.8017 48.1398 43.8279 48.0232 43.8541L47.8358 43.8702C47.7713 43.8803 47.5964 43.8863 47.4777 43.8904L41.2212 44.1946L38.0918 44.3498L36.5303 44.4263C36.3658 44.4364 36.3554 44.4263 36.2908 44.4263C36.2367 44.4263 36.1784 44.4163 36.1263 44.4163C36.0202 44.3961 35.914 44.38 35.812 44.3336C35.5246 44.2309 35.3539 43.9206 35.1082 43.7775C34.8584 43.6425 34.4045 43.5398 33.301 43.7715C32.7097 43.9105 32.3474 44.1221 32.1704 44.4525C32.0059 44.7729 32.0372 45.19 32.2454 45.5971C32.6514 46.4373 33.7215 47.0458 34.5273 47.3299C35.1623 47.5778 35.8494 47.6906 36.5323 47.6644L38.0835 47.5818L39.795 47.479C40.0406 48.6759 40.5945 49.7942 41.0588 50.9044C41.6189 52.2464 42.3434 53.5299 43.2491 54.6805C43.3991 54.8658 43.2179 55.4703 44.7566 54.2875C46.4139 53.0141 45.7643 53.137 45.6623 52.9677C45.0647 51.9421 44.3713 50.9871 43.93 49.8889C43.5947 49.0587 43.4282 48.1399 43.626 47.2211L47.2447 46.9732L47.251 46.9994Z" fill="#AA5B17"/>
</g>
</svg>
