<svg width="60" height="60" viewBox="0 0 60 60" fill="none" xmlns="http://www.w3.org/2000/svg">
<mask id="mask0_918_831" style="mask-type:alpha" maskUnits="userSpaceOnUse" x="0" y="0" width="60" height="60">
<rect width="60" height="60" fill="#D9D9D9"/>
</mask>
<g mask="url(#mask0_918_831)">
<path d="M37.0201 30.1758C35.1792 30.1758 33.6816 31.6275 33.6816 33.4121C33.6816 35.1967 35.1791 36.6483 37.0201 36.6483C38.861 36.6483 40.3585 35.1967 40.3585 33.4121C40.3585 31.6275 38.861 30.1758 37.0201 30.1758ZM37.0201 34.6696C36.3047 34.6696 35.7229 34.1055 35.7229 33.4121C35.7229 32.7186 36.3047 32.1545 37.0201 32.1545C37.7354 32.1545 38.3173 32.7186 38.3173 33.4121C38.3173 34.1055 37.7354 34.6696 37.0201 34.6696Z" fill="#AA5B17"/>
<path d="M9.85504 13.8838H47.0546V15.8625H9.85504V13.8838Z" fill="#AA5B17"/>
<path d="M5 16.0564V43.9436C5 45.5617 5.6486 47.0874 6.83135 48.2247C8.0141 49.362 9.57837 50 11.2476 50H48.7524C50.4216 50 51.9954 49.3712 53.1686 48.2247C54.3514 47.0781 55 45.5617 55 43.9436V23.7494C55 22.1313 54.3514 20.6056 53.1686 19.4683C51.9859 18.3218 50.4216 17.693 48.7524 17.693H9.75016V19.6718H48.7524C51.0702 19.6718 52.9588 21.5026 52.9588 23.7494V27.1059H35.6562C34.7787 27.1059 33.9298 27.2723 33.119 27.6052C32.3464 27.9196 31.6502 28.3819 31.0492 28.9551C30.4483 29.5284 29.981 30.2127 29.6567 30.9616C29.3133 31.7383 29.1416 32.5705 29.1416 33.4211C29.1416 34.2717 29.3133 35.0947 29.6567 35.8806C29.981 36.6296 30.4579 37.3045 31.0492 37.8871C31.6502 38.4696 32.3464 38.9227 33.119 39.237C33.9202 39.5699 34.7787 39.7363 35.6562 39.7363H52.9588V43.9619C52.9588 46.2088 51.0702 48.0396 48.7524 48.0396H11.2476C8.92977 48.0396 7.04122 46.2088 7.04122 43.9619V16.0564C7.04122 13.8095 8.92983 11.9788 11.2476 11.9788H46.2435C48.5613 11.9788 50.4498 13.8096 50.4498 16.0564H52.491C52.491 14.4383 51.8424 12.9126 50.6597 11.7753C49.477 10.6288 47.9127 10 46.2435 10H11.2476C9.57837 10 8.00457 10.6288 6.83135 11.7753C5.65813 12.9219 5 14.4383 5 16.0564ZM35.6562 37.7395C33.1953 37.7395 31.1923 35.7977 31.1923 33.4121C31.1923 31.0265 33.1953 29.0848 35.6562 29.0848H52.9588V37.7395H35.6562Z" fill="#AA5B17"/>
</g>
</svg>
