<svg width="40" height="40" viewBox="0 0 40 40" fill="none" xmlns="http://www.w3.org/2000/svg">
<circle cx="20" cy="20" r="19" fill="#EDF7FF" stroke="#2196F3" stroke-width="2"/>
<mask id="mask0_816_3802" style="mask-type:alpha" maskUnits="userSpaceOnUse" x="6" y="6" width="28" height="28">
<rect x="6" y="6" width="28" height="28" fill="#2196F3"/>
</mask>
<g mask="url(#mask0_816_3802)">
<path d="M16.4384 25.8208C16.1679 25.8208 15.9722 26.0175 15.9472 26.2631L15.8493 28.4736C15.8244 28.7192 16.046 28.9399 16.2916 28.9649H16.3166C16.5622 28.9649 16.7589 28.7682 16.7829 28.5226L16.8807 26.312C16.9047 26.0424 16.709 25.8208 16.4384 25.8208Z" fill="#2196F3"/>
<path d="M23.5613 25.8208C23.3157 25.8458 23.095 26.0415 23.119 26.3121L23.2168 28.5226C23.2168 28.7682 23.4375 28.9649 23.6831 28.9649H23.7081C23.9537 28.9399 24.1743 28.7442 24.1504 28.4737L24.0525 26.2631C24.0276 25.9926 23.8069 25.7969 23.5613 25.8208Z" fill="#2196F3"/>
<path d="M22.8246 20.614C23.7821 19.8033 24.4211 18.5752 24.4211 17.2243C24.4211 14.7931 22.4312 12.8032 20 12.8032C17.5689 12.8032 15.579 14.7931 15.579 17.2243C15.579 18.6001 16.193 19.8032 17.1755 20.614C14.8671 21.5965 13.1717 23.7581 12.9023 26.411C12.8773 26.6566 13.074 26.9022 13.3196 26.9272L13.3686 26.9262C13.5892 26.9262 13.8109 26.7545 13.8348 26.5089C14.0805 23.9788 15.8487 21.9399 18.1581 21.2282C18.7232 21.4738 19.3373 21.6215 20.0002 21.6215C20.6632 21.6215 21.2772 21.4738 21.8423 21.2282C22.7998 21.5227 23.6595 22.0389 24.3962 22.7508C25.4037 23.7582 26.0177 25.0841 26.1645 26.5089C26.1894 26.7545 26.4101 26.9512 26.6806 26.9263C26.9263 26.9013 27.1229 26.6806 27.098 26.4101C26.9263 24.7886 26.1894 23.2421 25.0352 22.0868C24.3962 21.4487 23.6353 20.9575 22.8246 20.614ZM16.5126 17.2243C16.5126 15.3083 18.0841 13.7368 20 13.7368C21.916 13.7368 23.4875 15.3083 23.4875 17.2243C23.4875 19.1402 21.916 20.7117 20 20.7117C18.0841 20.7117 16.5126 19.1402 16.5126 17.2243Z" fill="#2196F3"/>
<path d="M19.9999 8.33325C13.5651 8.33325 8.33325 13.5651 8.33325 19.9999C8.33325 26.4348 13.5651 31.6666 19.9999 31.6666C26.4348 31.6666 31.6666 26.4348 31.6666 19.9999C31.6666 13.5651 26.4348 8.33325 19.9999 8.33325ZM19.9999 30.733C14.0801 30.733 9.26683 25.9195 9.26683 19.9999C9.26683 14.0804 14.0804 9.26683 19.9999 9.26683C25.9195 9.26683 30.733 14.0814 30.733 19.9999C30.733 25.9197 25.9195 30.733 19.9999 30.733Z" fill="#2196F3"/>
</g>
</svg>
