<svg width="40" height="40" viewBox="0 0 40 40" fill="none" xmlns="http://www.w3.org/2000/svg">
<mask id="mask0_816_3812" style="mask-type:alpha" maskUnits="userSpaceOnUse" x="0" y="0" width="40" height="40">
<rect width="40" height="40" fill="#2196F3"/>
</mask>
<g mask="url(#mask0_816_3812)">
<path d="M11.6665 18.8103C11.6613 18.8103 11.6561 18.8103 11.6498 18.8103C10.9925 18.8103 10.4591 19.3426 10.4591 20.001C10.4591 20.6594 10.9914 21.1917 11.6498 21.1917C11.6561 21.1917 11.6613 21.1917 11.6675 21.1917H28.3331C28.3383 21.1917 28.3436 21.1917 28.3498 21.1917C29.0071 21.1917 29.5405 20.6594 29.5405 20.001C29.5405 19.3426 29.0082 18.8103 28.3498 18.8103C28.3436 18.8103 28.3383 18.8103 28.3321 18.8103H11.6665Z" fill="#AA5B17"/>
<path d="M21.1911 11.6673C21.1911 11.6621 21.1911 11.6569 21.1911 11.6507C21.1911 10.9933 20.6588 10.46 20.0004 10.46C19.342 10.46 18.8097 10.9923 18.8097 11.6507C18.8097 11.6569 18.8097 11.6621 18.8097 11.6684V11.6673V28.334C18.8097 28.3392 18.8097 28.3444 18.8097 28.3507C18.8097 29.008 19.342 29.5414 20.0004 29.5414C20.6588 29.5414 21.1911 29.009 21.1911 28.3507C21.1911 28.3444 21.1911 28.3392 21.1911 28.3329V28.334V11.6673Z" fill="#AA5B17"/>
<path d="M20.0003 3.33325C10.8091 3.33325 3.33362 10.8098 3.33362 19.9999C3.33362 29.1901 10.8101 36.6666 20.0003 36.6666C29.1915 36.6666 36.667 29.1901 36.667 19.9999C36.667 10.8098 29.1904 3.33325 20.0003 3.33325ZM20.0003 5.71465C27.9049 5.71465 34.2866 12.0973 34.2866 20.001C34.2866 27.9046 27.9049 34.2873 20.0003 34.2873C12.0956 34.2873 5.71398 27.9056 5.71398 20.001C5.71398 12.0963 12.0956 5.71465 20.0003 5.71465Z" fill="#AA5B17"/>
</g>
</svg>
