<svg width="30" height="34" viewBox="0 0 30 34" fill="none" xmlns="http://www.w3.org/2000/svg">
<path d="M28.0631 30.1102C28.3634 29.8205 28.5712 29.4458 28.6597 29.0347C28.7482 28.6235 28.7134 28.1948 28.5596 27.804C28.4059 27.4132 28.1403 27.0783 27.7974 26.8427C27.4544 26.6071 27.0498 26.4815 26.6359 26.4824C26.5946 26.4824 26.5563 26.4924 26.5156 26.4948L24.6467 24.5742H27.9236C27.984 24.5764 28.0442 24.5662 28.1007 24.5442C28.1571 24.5222 28.2086 24.4889 28.2521 24.4463C28.2956 24.4036 28.3302 24.3525 28.3538 24.2959C28.3774 24.2393 28.3896 24.1785 28.3896 24.1171C28.3896 24.0556 28.3774 23.9948 28.3538 23.9382C28.3302 23.8817 28.2956 23.8305 28.2521 23.7879C28.2086 23.7452 28.1571 23.7119 28.1007 23.6899C28.0442 23.6679 27.984 23.6578 27.9236 23.66H26.0815C26.0058 23.0943 25.7924 22.5569 25.4606 22.0964C25.1289 21.6359 24.6893 21.267 24.1818 21.0231C24.5126 20.7228 24.7384 20.3212 24.8251 19.879C24.9118 19.4367 24.8546 18.9778 24.6624 18.5715C24.4701 18.1651 24.153 17.8334 23.7591 17.6263C23.3652 17.4193 22.9157 17.3481 22.4785 17.4236L20.5608 15.8015H22.579C22.6983 15.8015 22.8127 15.7533 22.8971 15.6675C22.9814 15.5817 23.0288 15.4654 23.0288 15.3441C23.0288 15.2227 22.9814 15.1064 22.8971 15.0206C22.8127 14.9348 22.6983 14.8867 22.579 14.8867H22.206C22.1299 14.3206 21.9159 13.7829 21.5834 13.3224C21.2509 12.8619 20.8105 12.4932 20.3022 12.2498C20.652 11.911 20.8743 11.4584 20.9303 10.9704C20.9864 10.4825 20.8728 9.98993 20.6091 9.57824C20.3455 9.16656 19.9485 8.86168 19.487 8.71648C19.0254 8.57127 18.5285 8.59491 18.0823 8.78328L16.4296 7.51982H17.9155C18.0347 7.51966 18.1491 7.47142 18.2334 7.38567C18.3177 7.29993 18.3651 7.18368 18.3653 7.06242C18.3642 6.41289 18.1815 5.77708 17.8384 5.2292C17.4954 4.68131 17.0061 4.24395 16.4278 3.96818C16.7282 3.67792 16.9361 3.30275 17.0247 2.89113C17.1133 2.4795 17.0785 2.05033 16.9248 1.65901C16.7711 1.2677 16.5056 0.93222 16.1625 0.695895C15.8195 0.45957 15.4146 0.333252 15.0003 0.333252C14.5859 0.333252 14.1811 0.45957 13.838 0.695895C13.495 0.93222 13.2295 1.2677 13.0758 1.65901C12.9221 2.05033 12.8873 2.4795 12.9759 2.89113C13.0645 3.30275 13.2724 3.67792 13.5728 3.96818C12.9945 4.24392 12.5053 4.68129 12.1623 5.22919C11.8194 5.7771 11.6368 6.41293 11.6359 7.06242C11.636 7.18368 11.6835 7.29993 11.7678 7.38567C11.8521 7.47142 11.9664 7.51966 12.0857 7.51982H13.6251L11.8393 8.76082C11.3932 8.59153 10.9033 8.5842 10.4526 8.74007C10.0018 8.89595 9.61785 9.20545 9.36575 9.61618C9.11365 10.0269 9.00888 10.5136 9.06918 10.9939C9.12949 11.4741 9.35116 11.9185 9.69665 12.2516C9.18881 12.4949 8.74878 12.8634 8.41652 13.3236C8.08426 13.7838 7.87029 14.321 7.79405 14.8867H7.42387C7.30458 14.8867 7.19018 14.9348 7.10582 15.0206C7.02147 15.1064 6.97408 15.2227 6.97408 15.3441C6.97408 15.4654 7.02147 15.5817 7.10582 15.6675C7.19018 15.7533 7.30458 15.8015 7.42387 15.8015H9.70537L7.74175 17.462C7.29933 17.3506 6.83309 17.3912 6.41571 17.5774C5.99833 17.7636 5.65328 18.0851 5.43436 18.4916C5.21544 18.8981 5.13494 19.3669 5.20543 19.8248C5.27592 20.2827 5.49342 20.7041 5.82404 21.0231C5.31586 21.2666 4.87557 21.6353 4.54319 22.0958C4.21081 22.5563 3.99688 23.094 3.92085 23.66H2.07578C2.01539 23.6578 1.95518 23.6679 1.89875 23.6899C1.84232 23.7119 1.79082 23.7452 1.74733 23.7879C1.70384 23.8305 1.66925 23.8817 1.64562 23.9382C1.622 23.9948 1.60982 24.0556 1.60982 24.1171C1.60982 24.1785 1.622 24.2393 1.64562 24.2959C1.66925 24.3525 1.70384 24.4036 1.74733 24.4463C1.79082 24.4889 1.84232 24.5222 1.89875 24.5442C1.95518 24.5662 2.01539 24.5764 2.07578 24.5742H5.24117L3.38447 26.4847C3.37808 26.4847 3.37169 26.4847 3.3653 26.4847C2.95122 26.4837 2.54636 26.609 2.20316 26.8446C1.85997 27.0802 1.59424 27.4152 1.4404 27.8062C1.28656 28.1971 1.2517 28.626 1.34032 29.0373C1.42895 29.4487 1.63698 29.8235 1.93747 30.1132C1.35909 30.3887 0.869766 30.8259 0.526679 31.3737C0.183592 31.9215 0.000915541 32.5573 0 33.2068C0.000153765 33.3281 0.0475917 33.4443 0.131911 33.5301C0.216229 33.6158 0.330546 33.6641 0.449791 33.6642H6.28022C6.39946 33.6641 6.51378 33.6158 6.5981 33.5301C6.68242 33.4443 6.72986 33.3281 6.73001 33.2068C6.72915 32.5574 6.54656 31.9216 6.20358 31.3738C5.8606 30.826 5.37139 30.3888 4.79312 30.1132C5.02826 29.8875 5.20771 29.6086 5.31689 29.2991C5.42608 28.9897 5.46191 28.6584 5.42148 28.3322C5.38105 28.006 5.2655 27.6941 5.08422 27.4218C4.90294 27.1496 4.66104 26.9247 4.3782 26.7654L6.50569 24.5789H12.8138L10.9403 26.5054C10.5431 26.5374 10.1636 26.6858 9.84774 26.9327C9.5319 27.1797 9.29328 27.5145 9.16084 27.8966C9.0284 28.2787 9.00781 28.6916 9.10157 29.0854C9.19534 29.4792 9.39943 29.8368 9.6891 30.115C9.11065 30.3906 8.62126 30.8279 8.27809 31.3758C7.93491 31.9237 7.75211 32.5596 7.75105 33.2092C7.7512 33.3305 7.79864 33.4467 7.88296 33.5324C7.96728 33.6182 8.08159 33.6664 8.20084 33.6666H14.0313C14.1506 33.6666 14.265 33.6184 14.3493 33.5326C14.4337 33.4468 14.4811 33.3305 14.4811 33.2092C14.4802 32.5598 14.2976 31.924 13.9546 31.3762C13.6116 30.8284 13.1224 30.3911 12.5442 30.1155C12.7875 29.8819 12.9711 29.5914 13.0791 29.2693C13.187 28.9471 13.2161 28.6031 13.1638 28.267C13.1115 27.9308 12.9793 27.6127 12.7788 27.3403C12.5783 27.0678 12.3154 26.8492 12.013 26.7034L14.0789 24.5789H15.924L17.9835 26.6927C17.6792 26.8372 17.4142 27.0551 17.2117 27.3276C17.0093 27.6 16.8754 27.9188 16.8219 28.2559C16.7684 28.5931 16.7968 28.9384 16.9046 29.2618C17.0125 29.5853 17.1965 29.8769 17.4407 30.1114C16.8624 30.387 16.3731 30.8242 16.03 31.372C15.6869 31.9198 15.5042 32.5556 15.5033 33.2051C15.5034 33.3263 15.5508 33.4426 15.6352 33.5283C15.7195 33.6141 15.8338 33.6623 15.953 33.6624H21.7829C21.9021 33.6623 22.0165 33.6141 22.1008 33.5283C22.1851 33.4426 22.2325 33.3263 22.2327 33.2051C22.2317 32.5556 22.0491 31.9198 21.7061 31.3719C21.3632 30.824 20.874 30.3866 20.2958 30.1108C20.5833 29.8337 20.7861 29.4781 20.8798 29.0867C20.9735 28.6953 20.9542 28.2847 20.8243 27.9042C20.6943 27.5237 20.4591 27.1894 20.1469 26.9414C19.8348 26.6934 19.4589 26.5422 19.0644 26.506L17.1897 24.5771H23.3827L25.5497 26.8062C25.2792 26.9736 25.0504 27.2022 24.881 27.4743C24.7116 27.7464 24.6063 28.0546 24.5732 28.3748C24.5401 28.6951 24.5802 29.0188 24.6903 29.3207C24.8005 29.6227 24.9776 29.8947 25.208 30.1155C24.6297 30.3911 24.1404 30.8283 23.7973 31.3761C23.4543 31.9239 23.2716 32.5597 23.2706 33.2092C23.2707 33.3305 23.3182 33.4467 23.4025 33.5324C23.4868 33.6182 23.6011 33.6664 23.7204 33.6666H29.5502C29.6695 33.6664 29.7838 33.6182 29.8681 33.5324C29.9524 33.4467 29.9998 33.3305 30 33.2092C29.9999 32.5589 29.8177 31.9221 29.4747 31.3733C29.1317 30.8245 28.6421 30.3864 28.0631 30.1102ZM13.8255 2.44825C13.8253 2.21227 13.8939 1.98152 14.0226 1.78518C14.1514 1.58884 14.3345 1.43573 14.5488 1.3452C14.7631 1.25468 14.999 1.23082 15.2266 1.27663C15.4542 1.32243 15.6634 1.43586 15.8277 1.60256C15.9919 1.76925 16.1039 1.98174 16.1494 2.21314C16.1949 2.44454 16.1719 2.68446 16.0833 2.90257C15.9947 3.12067 15.8445 3.30717 15.6516 3.43847C15.4588 3.56976 15.2321 3.63997 15 3.6402C14.6892 3.63973 14.3913 3.51402 14.1715 3.29061C13.9517 3.06719 13.8279 2.76428 13.8273 2.44825H13.8255ZM15 4.555C15.5757 4.55589 16.133 4.76122 16.5757 5.13551C17.0183 5.50981 17.3186 6.02958 17.4245 6.60502H12.5767C12.6823 6.02962 12.9822 5.50982 13.4247 5.13548C13.8672 4.76115 14.4244 4.55582 15 4.555ZM5.78917 32.7471H0.940841C1.04609 32.1714 1.34611 31.6514 1.78888 31.2772C2.23165 30.9029 2.78925 30.698 3.36501 30.698C3.94076 30.698 4.49836 30.9029 4.94113 31.2772C5.3839 31.6514 5.68392 32.1714 5.78917 32.7471ZM3.3653 29.7828C3.13329 29.7826 2.90656 29.7124 2.71377 29.5812C2.52097 29.4499 2.37077 29.2635 2.28214 29.0455C2.19352 28.8274 2.17045 28.5876 2.21585 28.3562C2.26126 28.1248 2.37309 27.9124 2.53723 27.7456C2.70136 27.5789 2.91042 27.4653 3.13799 27.4194C3.36555 27.3735 3.6014 27.3972 3.81572 27.4875C4.03005 27.5778 4.21322 27.7308 4.34209 27.9269C4.47097 28.1231 4.53975 28.3538 4.53975 28.5897C4.53929 28.9062 4.41537 29.2096 4.19518 29.4333C3.97499 29.657 3.67653 29.7827 3.3653 29.7828ZM13.5408 32.7471H8.69189C8.79682 32.1711 9.09675 31.6507 9.53961 31.2761C9.98247 30.9015 10.5403 30.6964 11.1163 30.6964C11.6924 30.6964 12.2502 30.9015 12.6931 31.2761C13.1359 31.6507 13.4359 32.1711 13.5408 32.7471ZM11.1163 29.7828C10.8843 29.7828 10.6574 29.7129 10.4645 29.5818C10.2716 29.4507 10.1212 29.2643 10.0324 29.0463C9.94356 28.8283 9.92032 28.5884 9.9656 28.3569C10.0109 28.1255 10.1226 27.9129 10.2867 27.746C10.4508 27.5792 10.6598 27.4655 10.8874 27.4195C11.115 27.3734 11.351 27.3971 11.5653 27.4874C11.7797 27.5777 11.963 27.7306 12.0919 27.9268C12.2208 28.123 12.2896 28.3537 12.2896 28.5897C12.2893 28.906 12.1656 29.2093 11.9456 29.433C11.7257 29.6567 11.4274 29.7825 11.1163 29.7828ZM21.2918 32.7471H16.4441C16.549 32.1712 16.8489 31.6509 17.2916 31.2765C17.7344 30.902 18.2921 30.697 18.868 30.697C19.4438 30.697 20.0016 30.902 20.4443 31.2765C20.8871 31.6509 21.1869 32.1712 21.2918 32.7471ZM20.0407 28.5897C20.0407 28.8256 19.9719 29.0562 19.843 29.2523C19.7141 29.4484 19.5309 29.6013 19.3166 29.6915C19.1023 29.7818 18.8665 29.8053 18.639 29.7593C18.4115 29.7132 18.2025 29.5996 18.0385 29.4327C17.8745 29.2659 17.7629 29.0534 17.7177 28.822C17.6725 28.5906 17.6958 28.3508 17.7847 28.1329C17.8735 27.915 18.0239 27.7288 18.2169 27.5978C18.4098 27.4669 18.6366 27.397 18.8686 27.3972C19.1793 27.3978 19.4772 27.5236 19.6969 27.7472C19.9166 27.9707 20.0402 28.2737 20.0407 28.5897ZM23.9243 19.5026C23.9243 19.7385 23.8555 19.9691 23.7267 20.1652C23.5978 20.3613 23.4146 20.5142 23.2003 20.6044C22.986 20.6947 22.7501 20.7182 22.5226 20.6722C22.2951 20.6261 22.0862 20.5125 21.9222 20.3456C21.7582 20.1788 21.6466 19.9663 21.6014 19.7349C21.5562 19.5035 21.5795 19.2637 21.6684 19.0458C21.7572 18.8279 21.9076 18.6417 22.1005 18.5107C22.2935 18.3798 22.5202 18.3099 22.7522 18.3101C23.063 18.3105 23.361 18.4363 23.5807 18.6599C23.8005 18.8835 23.924 19.1865 23.9243 19.5026ZM21.5278 17.8113C21.2831 17.9917 21.0806 18.2249 20.9346 18.4941C20.7887 18.7632 20.703 19.0618 20.6836 19.3686C20.6641 19.6753 20.7115 19.9826 20.8223 20.2686C20.933 20.5546 21.1045 20.8122 21.3244 21.0231C20.8161 21.2665 20.3757 21.6352 20.0432 22.0957C19.7107 22.5562 19.4967 23.0939 19.4206 23.66H18.3316C18.2555 23.0939 18.0415 22.5562 17.709 22.0957C17.3765 21.6352 16.9361 21.2665 16.4278 21.0231C16.7003 20.7608 16.8972 20.4278 16.9976 20.0602C17.0979 19.6925 17.0977 19.3039 16.9972 18.9363C16.8966 18.5687 16.6994 18.236 16.4267 17.9738C16.1541 17.7116 15.8163 17.53 15.4498 17.4484V15.8015H19.151L21.5278 17.8113ZM13.8273 19.5026C13.8272 19.2666 13.8959 19.0358 14.0248 18.8395C14.1537 18.6432 14.3369 18.4902 14.5513 18.3998C14.7657 18.3094 15.0017 18.2857 15.2293 18.3318C15.457 18.3778 15.6661 18.4914 15.8302 18.6583C15.9943 18.8252 16.1061 19.0379 16.1514 19.2694C16.1966 19.5009 16.1733 19.7408 16.0844 19.9589C15.9956 20.1769 15.8451 20.3633 15.6521 20.4943C15.459 20.6254 15.2321 20.6953 15 20.6951C14.6891 20.6947 14.3911 20.5689 14.1713 20.3453C13.9515 20.1218 13.8278 19.8187 13.8273 19.5026ZM14.4555 14.8867C14.3795 14.3207 14.1655 13.783 13.8332 13.3225C13.5008 12.862 13.0605 12.4932 12.5523 12.2498C12.9472 11.8716 13.1786 11.3496 13.1958 10.7982C13.213 10.2468 13.0147 9.71098 12.6441 9.30804L15.0697 7.62501L17.3245 9.34705C16.9685 9.75157 16.7821 10.2816 16.8051 10.8239C16.8282 11.3663 17.0588 11.878 17.4477 12.2498C16.9395 12.4932 16.4992 12.862 16.1669 13.3225C15.8345 13.783 15.6205 14.3207 15.5445 14.8867H14.4555ZM21.3006 14.8867H16.4528C16.5577 14.3107 16.8577 13.7903 17.3005 13.4157C17.7434 13.0411 18.3012 12.836 18.8773 12.836C19.4533 12.836 20.0111 13.0411 20.454 13.4157C20.8969 13.7903 21.1968 14.3107 21.3017 14.8867H21.3006ZM20.0494 10.7299C20.0494 10.9659 19.9806 11.1965 19.8517 11.3928C19.7227 11.589 19.5395 11.7419 19.3251 11.8322C19.1107 11.9225 18.8748 11.9461 18.6472 11.9001C18.4196 11.8541 18.2106 11.7404 18.0465 11.5736C17.8824 11.4067 17.7706 11.1941 17.7254 10.9627C17.6801 10.7312 17.7033 10.4913 17.7921 10.2733C17.8809 10.0553 18.0313 9.86893 18.2243 9.73782C18.4172 9.60672 18.644 9.53674 18.8761 9.53674C19.1872 9.53706 19.4854 9.66286 19.7054 9.88655C19.9254 10.1102 20.0491 10.4135 20.0494 10.7299ZM9.95119 10.7299C9.95096 10.4939 10.0196 10.2631 10.1483 10.0667C10.2771 9.8704 10.4602 9.71729 10.6745 9.62678C10.8889 9.53628 11.1248 9.51245 11.3524 9.5583C11.5801 9.60416 11.7893 9.71764 11.9535 9.8844C12.1177 10.0512 12.2296 10.2637 12.2751 10.4951C12.3205 10.7266 12.2974 10.9665 12.2087 11.1846C12.1201 11.4027 11.9698 11.5892 11.7769 11.7204C11.584 11.8516 11.3571 11.9217 11.1251 11.9218C10.8141 11.9215 10.516 11.7959 10.296 11.5725C10.0759 11.3491 9.95195 11.0461 9.95119 10.7299ZM11.1251 12.8366C11.7004 12.8378 12.2573 13.0433 12.6995 13.4176C13.1418 13.7919 13.4416 14.3115 13.5472 14.8867H8.7006C8.8063 14.3111 9.10645 13.7912 9.54916 13.4169C9.99187 13.0425 10.5493 12.8373 11.1251 12.8366ZM11.1111 15.8015H14.5502V17.4484C14.1838 17.5303 13.8463 17.7121 13.5738 17.9743C13.3014 18.2365 13.1044 18.5692 13.0039 18.9367C12.9034 19.3042 12.9032 19.6927 13.0035 20.0602C13.1037 20.4278 13.3005 20.7607 13.5728 21.0231C13.0646 21.2666 12.6243 21.6353 12.2919 22.0958C11.9595 22.5563 11.7456 23.094 11.6696 23.66H10.58C10.5039 23.094 10.29 22.5563 9.95763 22.0958C9.62525 21.6353 9.18496 21.2666 8.67678 21.0231C8.88639 20.8225 9.0521 20.5793 9.16312 20.3092C9.27414 20.0391 9.32798 19.7483 9.32112 19.4557C9.31427 19.163 9.24688 18.8752 9.12335 18.6108C8.99981 18.3464 8.8229 18.1114 8.60414 17.9212L11.1111 15.8015ZM6.07566 19.5026C6.07555 19.2666 6.14426 19.0359 6.27312 18.8396C6.40197 18.6433 6.58517 18.4903 6.79955 18.3999C7.01393 18.3095 7.24986 18.2858 7.4775 18.3317C7.70513 18.3777 7.91425 18.4913 8.07839 18.6581C8.24254 18.825 8.35434 19.0376 8.39966 19.269C8.44498 19.5005 8.42178 19.7404 8.33299 19.9585C8.2442 20.1765 8.09382 20.3629 7.90086 20.494C7.7079 20.6251 7.48103 20.6951 7.24895 20.6951C6.93797 20.6948 6.63981 20.5691 6.41986 20.3455C6.19991 20.122 6.07613 19.8188 6.07566 19.5026ZM4.8245 23.66C4.92975 23.0843 5.22977 22.5643 5.67254 22.1901C6.11531 21.8158 6.67291 21.6109 7.24866 21.6109C7.82442 21.6109 8.38202 21.8158 8.82479 22.1901C9.26756 22.5643 9.56758 23.0843 9.67283 23.66H4.8245ZM12.5767 23.66C12.6816 23.0841 12.9815 22.5638 13.4242 22.1894C13.867 21.8149 14.4247 21.6099 15.0006 21.6099C15.5765 21.6099 16.1342 21.8149 16.5769 22.1894C17.0197 22.5638 17.3195 23.0841 17.4245 23.66H12.5767ZM22.7522 21.6105C23.3278 21.6112 23.8851 21.8165 24.3276 22.1909C24.7701 22.5652 25.0701 23.0851 25.1755 23.6606H20.3278C20.4336 23.0851 20.7337 22.5652 21.1764 22.1909C21.6191 21.8166 22.1765 21.6113 22.7522 21.6105ZM25.4603 28.5897C25.4603 28.3537 25.5291 28.123 25.658 27.9268C25.7869 27.7306 25.9702 27.5777 26.1845 27.4874C26.3989 27.3971 26.6348 27.3734 26.8624 27.4195C27.09 27.4655 27.2991 27.5792 27.4632 27.746C27.6273 27.9129 27.739 28.1255 27.7843 28.3569C27.8296 28.5884 27.8063 28.8283 27.7175 29.0463C27.6287 29.2643 27.4783 29.4507 27.2854 29.5818C27.0924 29.7129 26.8656 29.7828 26.6335 29.7828C26.3225 29.7825 26.0242 29.6567 25.8042 29.433C25.5843 29.2093 25.4606 28.906 25.4603 28.5897ZM24.2091 32.7471C24.314 32.1712 24.6139 31.6509 25.0566 31.2765C25.4994 30.902 26.0571 30.697 26.633 30.697C27.2088 30.697 27.7666 30.902 28.2093 31.2765C28.6521 31.6509 28.9519 32.1712 29.0568 32.7471H24.2091Z" fill="#AA5B17"/>
</svg>
