<svg width="40" height="40" viewBox="0 0 40 40" fill="none" xmlns="http://www.w3.org/2000/svg">
<mask id="mask0_816_3736" style="mask-type:alpha" maskUnits="userSpaceOnUse" x="0" y="0" width="40" height="40">
<rect width="40" height="40" fill="#2196F3"/>
</mask>
<g mask="url(#mask0_816_3736)">
<path d="M20.0003 9.93823C16.783 9.93823 14.1664 12.5555 14.1664 15.7721C14.1664 18.9888 16.7836 21.606 20.0003 21.606C23.2169 21.606 25.8342 18.9888 25.8342 15.7721C25.8342 12.5555 23.2169 9.93823 20.0003 9.93823ZM20.0003 20.4949C17.3958 20.4949 15.2775 18.3766 15.2775 15.7721C15.2775 13.1677 17.3964 11.0493 20.0003 11.0493C22.6042 11.0493 24.723 13.1682 24.723 15.7721C24.723 18.376 22.6042 20.4949 20.0003 20.4949Z" fill="#AA5B17"/>
<path d="M20 3.33325C10.81 3.33325 3.33337 10.8099 3.33337 19.9999C3.33337 24.3849 5.01948 28.5221 8.08004 31.6488C11.2378 34.8844 15.4712 36.6666 20 36.6666C21.1323 36.6666 22.2462 36.5555 23.3289 36.3377C26.5784 35.6849 29.5512 34.076 31.9195 31.6499C34.9806 28.5227 36.6667 24.3849 36.6667 19.9999C36.6667 10.8099 29.19 3.33325 20 3.33325ZM19.2223 35.5366C19.1328 35.5321 19.0445 35.5233 18.9556 35.5171C18.7867 35.506 18.6184 35.496 18.4506 35.4799C18.35 35.4699 18.2512 35.4555 18.1512 35.4438C17.9962 35.4255 17.8412 35.4088 17.6873 35.386C17.5823 35.3705 17.4789 35.3505 17.3745 35.3327C17.2273 35.3077 17.08 35.2844 16.9339 35.2555C16.8262 35.2344 16.7195 35.2083 16.6128 35.1849C16.4723 35.1538 16.3306 35.1244 16.1912 35.0894C16.0828 35.0621 15.9762 35.031 15.8689 35.0016C15.7317 34.9644 15.5945 34.9277 15.4589 34.8866C15.3523 34.8544 15.2467 34.8183 15.1412 34.7833C15.0067 34.7394 14.8723 34.696 14.7395 34.6488C14.6339 34.611 14.5295 34.5694 14.425 34.5294C14.2939 34.4794 14.1628 34.4299 14.0334 34.376C13.9289 34.3327 13.8267 34.286 13.7234 34.2405C13.5962 34.1844 13.4684 34.1283 13.3423 34.0688C13.24 34.0205 13.1389 33.9688 13.0373 33.9177C12.9128 33.8555 12.7884 33.7927 12.665 33.7271C12.5656 33.6738 12.4684 33.6182 12.37 33.5627C12.2478 33.4938 12.1256 33.4244 12.005 33.3521C11.9078 33.2938 11.8123 33.2327 11.7167 33.1721C11.5984 33.0971 11.48 33.0221 11.3634 32.9438C11.2689 32.8805 11.1756 32.8149 11.0823 32.7488C10.9673 32.6683 10.8528 32.5866 10.74 32.5027C10.6478 32.4344 10.5573 32.3632 10.4662 32.2927C10.3556 32.2066 10.2456 32.1194 10.1373 32.0299C10.0473 31.956 9.95837 31.8799 9.87004 31.8032C9.76393 31.7116 9.65893 31.6194 9.55448 31.5249C9.46726 31.4455 9.38171 31.3649 9.29615 31.2833C9.24004 31.2299 9.18504 31.1749 9.12948 31.1205C10.9334 26.7594 15.2556 23.8544 19.9989 23.8544C24.7423 23.8544 29.065 26.7599 30.8684 31.1205C30.8145 31.1733 30.7612 31.226 30.7073 31.2777C30.6184 31.3627 30.5289 31.4466 30.4384 31.5288C30.3384 31.6199 30.2367 31.7094 30.1345 31.7971C30.0423 31.8766 29.95 31.956 29.8562 32.0327C29.7517 32.1188 29.6456 32.2027 29.5389 32.286C29.4445 32.3599 29.3495 32.4333 29.2539 32.5049C29.145 32.586 29.0345 32.6644 28.9239 32.7427C28.8267 32.811 28.7295 32.8794 28.6311 32.9455C28.5184 33.021 28.4045 33.0938 28.29 33.166C28.1906 33.2288 28.0912 33.2921 27.99 33.3527C27.8734 33.4227 27.755 33.4899 27.6367 33.5566C27.535 33.6144 27.4339 33.6721 27.3306 33.7271C27.2106 33.7916 27.0895 33.8521 26.9678 33.9132C26.8639 33.9655 26.76 34.0188 26.655 34.0683C26.5317 34.1266 26.4062 34.1816 26.2812 34.2366C26.1756 34.2832 26.0706 34.331 25.9639 34.3749C25.8367 34.4277 25.7078 34.4766 25.5789 34.5255C25.4723 34.5666 25.3656 34.6088 25.2578 34.6471C25.1273 34.6938 24.995 34.736 24.8628 34.7794C24.7545 34.8149 24.6473 34.8516 24.5384 34.8849C24.4034 34.9255 24.2673 34.9616 24.1312 34.9988C24.0234 35.0282 23.9162 35.0599 23.8073 35.0866C23.6673 35.1216 23.5261 35.1516 23.385 35.1821C23.2778 35.2055 23.1717 35.2316 23.0639 35.2527C22.9178 35.2816 22.7706 35.3049 22.6234 35.3299C22.5189 35.3477 22.4156 35.3677 22.3106 35.3832C22.1567 35.406 22.0017 35.4227 21.8467 35.441C21.7467 35.4527 21.6473 35.4671 21.5473 35.4771C21.38 35.4933 21.2112 35.5033 21.0423 35.5144C20.9534 35.5199 20.865 35.5294 20.7756 35.5338C20.5178 35.5466 20.2584 35.5527 19.9978 35.5527C19.7373 35.5527 19.4784 35.546 19.22 35.5338L19.2223 35.5366ZM31.6984 30.2527C29.62 25.7288 25.0278 22.7449 20 22.7449C14.9723 22.7449 10.38 25.7288 8.30171 30.2527C5.80893 27.4183 4.44449 23.8099 4.44449 20.0005C4.44449 11.4233 11.4228 4.44492 20 4.44492C28.5773 4.44492 35.5556 11.4233 35.5556 20.0005C35.5556 23.8099 34.1911 27.4177 31.6984 30.2527Z" fill="#AA5B17"/>
</g>
</svg>
